<?xml version="1.0" encoding="UTF-8"?>
<svg version="1.1" xmlns="http://www.w3.org/2000/svg" width="138" height="126">
<path d="M0 0 C4.44340506 1.42968792 7.46604375 3.8529048 10.8125 7 C11.59971436 7.73585327 11.59971436 7.73585327 12.40283203 8.48657227 C23.84995271 19.38817432 32.33529544 31.76509462 33 48 C32.55091373 61.86309786 24.51985614 73.56164948 15 83 C14.2471875 83.77730469 13.494375 84.55460937 12.71875 85.35546875 C7.39900519 90.8004974 7.39900519 90.8004974 5 92 C4.52998967 95.27555608 4.52998967 95.27555608 4.375 99.0625 C4.30023438 100.35285156 4.22546875 101.64320312 4.1484375 102.97265625 C4.09945312 103.97167969 4.05046875 104.97070312 4 106 C2.02 106 0.04 106 -2 106 C-2 101.38 -2 96.76 -2 92 C-3.32 91.34 -4.64 90.68 -6 90 C-7.53979492 88.71899414 -7.53979492 88.71899414 -8.98046875 87.28515625 C-9.76647461 86.50301758 -9.76647461 86.50301758 -10.56835938 85.70507812 C-11.36983398 84.89200195 -11.36983398 84.89200195 -12.1875 84.0625 C-12.73341797 83.52431641 -13.27933594 82.98613281 -13.84179688 82.43164062 C-16.27299314 79.98839382 -17.89577976 78.31266073 -19 75 C-17.1875 73.4375 -17.1875 73.4375 -15 72 C-11.61944932 73.12685023 -10.8920618 74.05384625 -8.6875 76.75 C-5.70104085 80.28291763 -2.64181292 83.15760943 1 86 C12.83480534 76.09740777 23.08281351 65.73184824 25.3125 49.76171875 C25.98684878 37.89739496 19.02592785 26.70740959 11.46484375 18.12109375 C7.16950003 13.49793175 7.16950003 13.49793175 2.00390625 9.98046875 C-2.09115618 10.02038164 -4.70426356 13.77636117 -7.515625 16.4296875 C-10.70270977 19.72701734 -13.44907638 23.19435379 -16 27 C-17.98 26.01 -19.96 25.02 -22 24 C-18.58566572 13.70132868 -8.42256723 6.25420418 0 0 Z " fill="#5FB85F" transform="translate(95,10)"/>
<path d="M0 0 C0 2.31 0 4.62 0 7 C-0.76183594 7.08636719 -1.52367187 7.17273438 -2.30859375 7.26171875 C-12.12250807 8.59719523 -18.66705969 10.84555779 -24.875 18.75 C-27.13203916 21.48553147 -28.268292 22.81393711 -31.734375 23.6953125 C-33.63579696 23.813509 -35.54044147 23.88894717 -37.4453125 23.91796875 C-40.97718994 24.03137766 -43.15142782 24.93478517 -46 27 C-48.54407461 30.52887769 -49.21570944 32.96182447 -48.6875 37.1875 C-48.3471875 39.0746875 -48.3471875 39.0746875 -48 41 C-48 41.99 -48 42.98 -48 44 C-49.11375 44.5775 -50.2275 45.155 -51.375 45.75 C-53.48674863 46.97865375 -54.87913752 47.85286307 -56.4375 49.75 C-57.59695449 54.38781797 -57.60925737 58.38725991 -55.9375 62.8125 C-53.22385165 65.87629652 -50.91837739 66.84375749 -47 68 C-42.07804386 68.06651292 -37.58602845 66.71976067 -33 65 C-32.63648437 65.53109375 -32.27296875 66.0621875 -31.8984375 66.609375 C-26.29612121 74.48134763 -20.40699289 77.96281683 -11 80 C-6.20246256 80.32525678 -1.73864217 79.77365586 3 79 C3.38133299 80.9914056 3.71325582 82.99279077 4 85 C1.65347529 87.34652471 -4.63615862 86.30966395 -7.92089844 86.32128906 C-14.31164379 86.2276425 -19.40491267 85.23345284 -25 82 C-25.90298828 81.47986328 -25.90298828 81.47986328 -26.82421875 80.94921875 C-28.93189609 79.62745499 -30.70841714 78.40165057 -32.1796875 76.375 C-35.07774101 74.18591237 -38.22754815 74.86712284 -41.6875 75.0625 C-47.93375755 75.21241576 -53.15029867 75.33427413 -58 71 C-62.18752352 66.63119841 -64.37441118 62.53003925 -64.6875 56.4375 C-64.3416357 50.2724689 -61.88607506 45.6224757 -57.33203125 41.484375 C-55.63823062 39.92925712 -55.63823062 39.92925712 -56 36.75 C-56 31.12213165 -54.28001295 27.48212026 -50.625 23.25 C-46.41878819 19.64467559 -43.39732207 17.99761086 -37.9375 17.125 C-33.11576121 16.25411326 -31.8704227 15.03653192 -29 11 C-20.36311755 3.81575592 -11.29943703 0 0 0 Z " fill="#5FB85F" transform="translate(76,17)"/>
<path d="M0 0 C1.98 0 3.96 0 6 0 C6.495 7.92 6.495 7.92 7 16 C9.31 13.69 11.62 11.38 14 9 C18 11 18 11 18.75 13.125 C18.8325 13.74375 18.915 14.3625 19 15 C18.46890625 15.45890625 17.9378125 15.9178125 17.390625 16.390625 C16.33101562 17.31101562 16.33101562 17.31101562 15.25 18.25 C14.55390625 18.85328125 13.8578125 19.4565625 13.140625 20.078125 C12.43421875 20.71234375 11.7278125 21.3465625 11 22 C10.2575 22.598125 9.515 23.19625 8.75 23.8125 C6.31999453 26.85000684 6.59671884 28.91797088 6.75 32.75 C6.80414063 34.50570312 6.80414063 34.50570312 6.859375 36.296875 C6.92898437 37.63492188 6.92898437 37.63492188 7 39 C9.31 36.69 11.62 34.38 14 32 C15.65 32.66 17.3 33.32 19 34 C19 37 19 37 16.734375 39.59375 C15.74721061 40.57027111 14.7520431 41.53875255 13.75 42.5 C13.25886719 42.98597656 12.76773438 43.47195312 12.26171875 43.97265625 C9.64552984 46.53303313 6.99292648 48.89069944 4 51 C0.91450197 49.60809755 -1.37046979 47.95565889 -3.875 45.6875 C-7.19429997 42.71629141 -10.56378965 39.83487354 -14 37 C-12.54883721 33.25116279 -12.54883721 33.25116279 -10.15625 32.15625 C-8 32 -8 32 -6.078125 33.43359375 C-5.47484375 34.09488281 -4.8715625 34.75617188 -4.25 35.4375 C-3.63640625 36.09621094 -3.0228125 36.75492188 -2.390625 37.43359375 C-1.93171875 37.95050781 -1.4728125 38.46742187 -1 39 C-0.13605246 34.42181643 0.06579558 30.55736119 -1 26 C-4.43802383 21.16729371 -9.32273627 17.56577112 -14 14 C-13.67 13.01 -13.34 12.02 -13 11 C-11.68 10.34 -10.36 9.68 -9 9 C-6.36 11.31 -3.72 13.62 -1 16 C-0.67 10.72 -0.34 5.44 0 0 Z " fill="#5FB85F" transform="translate(93,33)"/>
<path d="M0 0 C3.10118526 2.04396302 4.32061104 3.3978486 5.75 6.8125 C6.3431368 10.79498997 5.92424115 12.48890929 4 16.0625 C0.83474576 19.93114407 0.83474576 19.93114407 -2.25 20.8125 C-7.46542759 21.29540996 -10.85629839 20.70834879 -15.25 17.8125 C-17.4479747 15.10166453 -18.17397877 13.32292828 -18.6875 9.875 C-18.04191855 5.35592984 -16.0859142 2.2052625 -12.4375 -0.5625 C-7.97059472 -1.83875865 -4.34127591 -1.58623543 0 0 Z M-10.1875 5.9375 C-11.4873322 7.82683678 -11.4873322 7.82683678 -11.0625 10.375 C-10.40372967 12.95691272 -10.40372967 12.95691272 -8.25 14.8125 C-4.95285207 14.48278521 -3.6273161 14.1898161 -1.25 11.8125 C-1.57198966 8.71323181 -1.57198966 8.71323181 -2.25 5.8125 C-6.34542781 4.67046048 -6.34542781 4.67046048 -10.1875 5.9375 Z " fill="#5FB85F" transform="translate(29.25,11.1875)"/>
<path d="M0 0 C2.92212377 2.62241877 3.86731137 4.18728214 4.5 8.0625 C3.88967138 11.64818067 2.80986461 12.76863693 0 15 C-2.7798816 16.3899408 -4.9186326 16.18488204 -8 16 C-11.34265205 14.79293121 -11.94704566 14.07943151 -14 11 C-14.50326079 7.14166724 -14.31669325 5.49142057 -12.1875 2.1875 C-8.31236594 -1.68763406 -5.1029375 -1.25335307 0 0 Z " fill="#5FB85F" transform="translate(51,58)"/>
<path d="M0 0 C0.99 0.66 1.98 1.32 3 2 C3.375 5.5 3.375 5.5 3 9 C-0.46923881 11.31282587 -1.92205575 11.42478586 -6 11 C-7.875 9.8125 -7.875 9.8125 -9 8 C-9.42822025 5.14519831 -9.40659584 3.65507108 -7.875 1.1875 C-5.15523346 -0.53501881 -3.15413751 -0.32855599 0 0 Z " fill="#5FB85F" transform="translate(66,47)"/>
</svg>
